<svg width="16" height="16" viewBox="0 0 16 16" fill="none" xmlns="http://www.w3.org/2000/svg">
<g id="Linear / Security / Lock Keyhole" clip-path="url(#clip0_27_179)">
<path id="Vector" d="M1.33301 10.6666C1.33301 8.78101 1.33301 7.8382 1.91879 7.25241C2.50458 6.66663 3.44739 6.66663 5.33301 6.66663H10.6663C12.552 6.66663 13.4948 6.66663 14.0806 7.25241C14.6663 7.8382 14.6663 8.78101 14.6663 10.6666C14.6663 12.5522 14.6663 13.4951 14.0806 14.0808C13.4948 14.6666 12.552 14.6666 10.6663 14.6666H5.33301C3.44739 14.6666 2.50458 14.6666 1.91879 14.0808C1.33301 13.4951 1.33301 12.5522 1.33301 10.6666Z" stroke="black" stroke-width="1.75"/>
<ellipse id="Vector_2" cx="8.00033" cy="10.6666" rx="1.33333" ry="1.33333" stroke="black" stroke-width="1.75"/>
<path id="Vector_3" d="M4 6.66671V5.33337C4 3.12424 5.79086 1.33337 8 1.33337C10.2091 1.33337 12 3.12424 12 5.33337V6.66671" stroke="black" stroke-width="1.75" stroke-linecap="round"/>
</g>
<defs>
<clipPath id="clip0_27_179">
<rect width="16" height="16" fill="white"/>
</clipPath>
</defs>
</svg>
